<svg width="319" height="203" viewBox="0 0 319 203" fill="none" xmlns="http://www.w3.org/2000/svg">
<g clip-path="url(#clip0_130_175)">
<path d="M10.1097 155.802C11.6906 139.966 21.2457 124.157 36.4488 118.628C30.831 135.03 31.3058 152.854 37.7893 168.946C40.3127 175.143 43.7767 181.778 41.7271 188.141C40.4518 192.1 37.1568 195.189 33.4344 197.163C29.7117 199.136 25.5488 200.138 21.4377 201.121L20.6416 201.802C13.692 187.426 8.52882 171.639 10.1097 155.802Z" fill="#F0F0F0"/>
<path d="M36.609 118.922C28.0251 128.865 22.6224 141.564 21.6777 154.583C21.4735 157.398 21.5159 160.27 22.2148 163.022C22.917 165.698 24.3367 168.142 26.3264 170.098C28.1443 171.958 30.2233 173.654 31.5488 175.916C32.9459 178.3 33.0701 181.046 32.2258 183.638C31.1929 186.809 29.0606 189.427 26.8846 191.915C24.4687 194.679 21.9147 197.512 20.9523 201.118C20.8357 201.555 20.1517 201.352 20.2682 200.915C21.9425 194.641 28.0078 190.946 30.7962 185.263C32.0973 182.611 32.5919 179.558 31.2336 176.828C30.0458 174.441 27.9034 172.69 26.0461 170.822C24.096 168.86 22.5831 166.692 21.7632 164.05C20.9245 161.347 20.7675 158.47 20.8975 155.663C21.2407 149.299 22.6013 143.027 24.9296 137.078C27.5484 130.274 31.3339 123.96 36.1224 118.408C36.4189 118.065 36.9036 118.581 36.609 118.922Z" fill="white"/>
<path d="M21.7573 150.336C19.5359 149.866 17.5569 148.637 16.1737 146.868C14.7905 145.098 14.0932 142.904 14.2062 140.677C14.2117 140.586 14.2528 140.501 14.321 140.439C14.3892 140.378 14.4791 140.345 14.5717 140.347C14.6644 140.349 14.7525 140.386 14.8177 140.451C14.8828 140.516 14.9197 140.603 14.9208 140.694C14.8116 142.768 15.4614 144.811 16.7529 146.456C18.0444 148.101 19.8925 149.239 21.9636 149.664C22.4136 149.757 22.2047 150.428 21.7573 150.336Z" fill="white"/>
<path d="M25.2785 169.273C29.2033 166.835 32.0474 163.035 33.2439 158.63C33.362 158.193 34.0461 158.396 33.928 158.832C32.6743 163.414 29.7063 167.363 25.6164 169.891C25.2264 170.132 24.8906 169.513 25.2785 169.273Z" fill="white"/>
<path d="M28.2292 130.921C29.0502 131.279 29.9487 131.431 30.8441 131.363C31.7396 131.295 32.6039 131.01 33.3595 130.534C33.7461 130.289 34.0816 130.908 33.6974 131.152C32.8601 131.675 31.9052 131.988 30.916 132.065C29.9268 132.142 28.9336 131.98 28.0229 131.593C27.934 131.563 27.8598 131.502 27.8154 131.421C27.771 131.34 27.7598 131.245 27.784 131.156C27.8117 131.067 27.8741 130.993 27.9575 130.949C28.0408 130.905 28.1385 130.895 28.2292 130.921Z" fill="white"/>
<path d="M83.9553 145.625C83.7183 145.785 83.4813 145.945 83.2441 146.111C80.069 148.279 77.0785 150.696 74.3022 153.339C74.0842 153.54 73.8664 153.747 73.6548 153.953C67.0352 160.39 61.6908 167.978 57.8935 176.329C56.3855 179.654 55.1374 183.087 54.1601 186.597C52.8107 191.445 51.7406 196.808 48.921 200.817C48.6316 201.239 48.3159 201.642 47.9757 202.026L21.5503 202.702C21.4894 202.674 21.4284 202.652 21.3673 202.624L20.3135 202.698C20.351 202.513 20.394 202.323 20.4315 202.138C20.4528 202.031 20.48 201.924 20.5013 201.817C20.5174 201.745 20.5337 201.674 20.5441 201.608C20.5493 201.585 20.5549 201.561 20.5603 201.543C20.5706 201.478 20.5873 201.418 20.5978 201.358C20.8349 200.292 21.0801 199.226 21.3333 198.16C21.3331 198.154 21.3331 198.154 21.3388 198.148C23.2892 190.028 25.9475 181.996 29.7634 174.616C29.8783 174.394 29.9927 174.166 30.1197 173.943C31.8585 170.626 33.8707 167.454 36.1362 164.458C37.3821 162.822 38.7116 161.248 40.1196 159.744C43.7652 155.863 48.0102 152.57 52.6987 149.984C62.046 144.83 72.9688 142.668 83.1774 145.408C83.4386 145.479 83.6941 145.549 83.9553 145.625Z" fill="#F0F0F0"/>
<path d="M83.9048 145.956C70.9509 148.824 58.8465 155.771 50.1056 165.607C48.2159 167.734 46.4874 170.053 45.3576 172.662C44.2762 175.214 43.9109 178.004 44.2996 180.742C44.6098 183.301 45.2291 185.884 44.8999 188.473C44.5529 191.202 42.9675 193.468 40.7034 195.038C37.9333 196.96 34.6248 197.79 31.3606 198.492C27.7364 199.271 23.9593 200.023 20.9786 202.334C20.6175 202.614 20.196 202.048 20.5566 201.768C25.7424 197.748 32.8518 198.382 38.5651 195.491C41.2309 194.142 43.4988 191.997 44.0888 189.015C44.6048 186.407 43.9685 183.743 43.6316 181.154C43.2779 178.436 43.4 175.811 44.3662 173.217C45.3545 170.563 46.9942 168.173 48.8203 166.008C52.9985 161.13 57.9322 156.926 63.4409 153.552C69.7061 149.667 76.6024 146.862 83.8314 145.259C84.2788 145.16 84.3493 145.858 83.9048 145.956Z" fill="white"/>
<path d="M52.7754 162.263C51.2898 160.576 50.4637 158.425 50.4447 156.195C50.4257 153.965 51.215 151.801 52.6716 150.089C52.9676 149.744 53.5282 150.179 53.2319 150.525C51.8725 152.116 51.1374 154.132 51.1595 156.209C51.1815 158.285 51.9591 160.285 53.352 161.849C53.6543 162.189 53.076 162.601 52.7754 162.263Z" fill="white"/>
<path d="M43.9684 179.464C48.5979 179.836 53.2003 178.482 56.8579 175.672C57.22 175.393 57.6417 175.959 57.28 176.238C53.4683 179.155 48.6758 180.554 43.8591 180.157C43.4 180.118 43.5118 179.426 43.9684 179.464Z" fill="white"/>
<path d="M69.853 150.585C70.2892 151.356 70.9136 152.008 71.67 152.483C72.4265 152.958 73.2913 153.241 74.1869 153.307C74.6462 153.34 74.5339 154.033 74.0776 154C73.0885 153.923 72.1337 153.609 71.2968 153.086C70.4599 152.563 69.7662 151.846 69.2764 150.999C69.2234 150.923 69.2019 150.83 69.2163 150.739C69.2306 150.648 69.2797 150.566 69.3537 150.509C69.4303 150.455 69.5257 150.432 69.6192 150.447C69.7127 150.461 69.7968 150.511 69.853 150.585Z" fill="white"/>
<path d="M239.049 13.8948C238.655 12.7515 233.707 8.86495 236.739 8.2117L239.225 11.4653L250.656 0.24707L251.806 1.37536L239.049 13.8948Z" fill="#882C9F"/>
<path d="M239.049 52.0413C238.655 50.898 233.707 47.0114 236.739 46.3582L239.225 49.6118L250.656 38.3936L251.806 39.5218L239.049 52.0413Z" fill="#882C9F"/>
<path d="M239.049 90.7327C238.655 89.5894 233.707 85.7028 236.739 85.0496L239.225 88.3032L250.656 77.085L251.806 78.2132L239.049 90.7327Z" fill="#882C9F"/>
<path d="M228.523 59.4519C230.472 59.4519 232.051 57.902 232.051 55.9901C232.051 54.0782 230.472 52.5283 228.523 52.5283C226.575 52.5283 224.996 54.0782 224.996 55.9901C224.996 57.902 226.575 59.4519 228.523 59.4519Z" fill="#3F3D56"/>
<path d="M228.523 21.7185C230.472 21.7185 232.051 20.1686 232.051 18.2567C232.051 16.3448 230.472 14.7949 228.523 14.7949C226.575 14.7949 224.996 16.3448 224.996 18.2567C224.996 20.1686 226.575 21.7185 228.523 21.7185Z" fill="#3F3D56"/>
<path d="M319 10.2949H262.21V10.9873H319V10.2949Z" fill="#3F3D56"/>
<path d="M230.287 99.6755C232.235 99.6755 233.814 98.1256 233.814 96.2137C233.814 94.3018 232.235 92.752 230.287 92.752C228.339 92.752 226.76 94.3018 226.76 96.2137C226.76 98.1256 228.339 99.6755 230.287 99.6755Z" fill="#3F3D56"/>
<path d="M319 48.4414H262.21V49.1338H319V48.4414Z" fill="#3F3D56"/>
<path d="M319 87.1328H262.21V87.8252H319V87.1328Z" fill="#3F3D56"/>
<path d="M247.959 95.8913H230.322V78.2363H242.315V78.9287H231.028V95.199H247.254V87.2369H247.959V95.8913Z" fill="#3F3D56"/>
<path d="M247.959 57.1189H230.322V39.4639H242.315V40.1562H231.028V56.4265H247.254V48.4645H247.959V57.1189Z" fill="#3F3D56"/>
<path d="M247.959 17.655H230.322V0H242.315V0.692354H231.028V16.9627H247.254V9.0006H247.959V17.655Z" fill="#3F3D56"/>
<path d="M132.806 62.9251C132.806 62.9251 128.093 82.4568 133.854 82.4568C139.615 82.4568 153.232 60.3551 153.232 60.3551L148.518 54.7012L140.058 66.2288L139.615 60.3551L132.806 62.9251Z" fill="#A0616A"/>
<path d="M151.976 61.2047C154.509 61.2047 156.562 59.1898 156.562 56.7044C156.562 54.219 154.509 52.2041 151.976 52.2041C149.444 52.2041 147.391 54.219 147.391 56.7044C147.391 59.1898 149.444 61.2047 151.976 61.2047Z" fill="#A0616A"/>
<path d="M128.81 195.953L134.913 195.953L137.817 172.847L128.809 172.847L128.81 195.953Z" fill="#A0616A"/>
<path d="M128.595 202.201L147.365 202.201V201.968C147.365 200.066 146.595 198.243 145.225 196.898C143.855 195.553 141.997 194.798 140.059 194.798H140.059L136.63 192.245L130.233 194.798L128.595 194.798L128.595 202.201Z" fill="#2F2E41"/>
<path d="M63.1533 188.479L68.6147 191.154L81.7266 171.752L73.6659 167.805L63.1533 188.479Z" fill="#A0616A"/>
<path d="M60.1172 193.976L76.912 202.201L77.018 201.993C77.8832 200.291 78.0242 198.322 77.4102 196.519C76.7961 194.715 75.4772 193.225 73.7436 192.376L73.7432 192.375L71.837 188.589L64.9516 188.07L63.4855 187.352L60.1172 193.976Z" fill="#2F2E41"/>
<path d="M89.347 98.3589C89.347 98.3589 86.9077 127.143 86.384 133.311C86.0249 137.177 85.1443 140.98 83.7654 144.619C83.7654 144.619 82.7179 146.675 82.7179 148.731L70.8467 169.904C70.8467 169.904 67.2191 172.521 67.7428 174.577C68.2665 176.633 65.5557 177.866 65.5557 177.866L78.0572 180.231C78.0572 180.231 77.5334 178.689 79.1046 178.175C80.6758 177.661 81.9265 173.203 81.9265 173.203L99.4773 145.133L112.047 119.433C112.047 119.433 119.379 142.563 120.95 145.133C120.95 145.133 126.711 173.916 127.759 176.486C128.806 179.056 129.33 179.056 128.806 180.084C128.282 181.112 128.282 182.14 128.806 182.654C129.33 183.168 139.281 182.654 139.281 182.654L136.662 146.161L131.949 102.471L107.857 95.2754L89.347 98.3589Z" fill="#2F2E41"/>
<path d="M112.934 29.6433C119.008 29.6433 123.932 24.8108 123.932 18.8495C123.932 12.8882 119.008 8.05566 112.934 8.05566C106.86 8.05566 101.936 12.8882 101.936 18.8495C101.936 24.8108 106.86 29.6433 112.934 29.6433Z" fill="#A0616A"/>
<path d="M132.996 45.4176L119.903 37.6326C119.903 37.6326 119.54 32.7983 115.81 32.5708C113.937 32.4566 111.127 32.282 106.909 32.0151C106.017 31.9587 105.416 36.7447 104.394 36.6798L90.574 40.2777L92.6689 75.2292C92.6689 75.2292 89.5266 89.107 90.574 91.6769C91.6215 94.2469 87.9554 95.2749 89.0028 95.7889C90.0503 96.3029 89.0028 99.9008 89.0028 99.9008C89.0028 99.9008 109.428 110.181 131.949 102.471L129.854 95.7889C130.139 94.9154 130.192 93.985 130.009 93.0856C129.826 92.1862 129.412 91.3476 128.806 90.6489C128.806 90.6489 130.901 87.565 128.283 84.995C128.283 84.995 129.33 80.3691 126.711 78.3131L126.188 71.1172L127.759 67.5193L132.996 45.4176Z" fill="#E6E6E6"/>
<path d="M103.39 25.0162L103.083 24.3154C103.043 24.2248 99.1535 15.2009 102.601 9.63466C104.197 7.05777 107.099 5.60291 111.226 5.31083C117.684 4.85258 122.103 6.35593 124.366 9.77597C124.745 10.3556 124.958 11.0248 124.983 11.7133C125.008 12.4018 124.843 13.084 124.506 13.6884C124.169 14.2927 123.672 14.7968 123.068 15.1477C122.464 15.4985 121.775 15.6831 121.073 15.6821H120.986L119.8 14.1701L119.731 14.3172C119.301 15.2293 118.315 15.7286 117.159 15.6192C116.963 15.6054 116.788 15.7719 116.649 16.1282C116.601 16.284 116.513 16.4246 116.391 16.5351C116.27 16.6456 116.12 16.7219 115.958 16.7561C115.104 16.9192 113.887 15.8638 113.343 15.3378C113.322 15.4589 113.274 15.5741 113.204 15.6757C113.134 15.7773 113.042 15.8629 112.935 15.9267C112.361 16.2518 111.468 15.8271 111.211 15.6919C109.168 16.1179 107.846 16.0039 107.279 15.3537C106.895 18.0205 106.071 22.8206 105.083 23.0867C104.979 23.11 104.871 23.1001 104.774 23.0584C104.677 23.0168 104.596 22.9456 104.543 22.8553C104.305 22.5521 104.092 22.4009 103.96 22.4434C103.638 22.5438 103.448 23.583 103.421 24.2537L103.39 25.0162Z" fill="#2F2E41"/>
<path d="M127.235 45.9317L132.46 45.0986C136.223 48.6474 138.787 53.2438 139.805 58.2675C141.376 66.4914 141.899 68.0333 141.899 68.0333L129.33 71.1173L122.521 58.2675L127.235 45.9317Z" fill="#E6E6E6"/>
<path d="M104.052 56.6286L100.823 96.7969L183.217 103.176L186.445 63.0072L104.052 56.6286Z" fill="white"/>
<path d="M112.855 59.7403C110.839 58.3271 108.279 58.2249 107.301 58.2452C107.599 59.1592 108.526 61.5033 110.543 62.9171C112.564 64.3338 115.121 64.4329 116.097 64.4131C115.799 63.4994 114.872 61.1544 112.855 59.7403Z" fill="#882C9F"/>
<path d="M120.809 85.3009L107.579 84.2767C107.188 84.2464 106.795 84.292 106.422 84.4108C106.049 84.5297 105.704 84.7195 105.406 84.9694C105.107 85.2192 104.862 85.5243 104.684 85.8672C104.506 86.21 104.398 86.584 104.368 86.9676C104.337 87.3513 104.383 87.7371 104.504 88.1031C104.625 88.4692 104.819 88.8082 105.073 89.1009C105.328 89.3935 105.639 89.6341 105.988 89.8089C106.338 89.9837 106.719 90.0892 107.11 90.1195L120.34 91.1437C121.129 91.2048 121.911 90.9557 122.513 90.451C123.116 89.9463 123.489 89.2276 123.551 88.4527C123.613 87.6779 123.36 86.9106 122.845 86.3195C122.331 85.7284 121.599 85.362 120.809 85.3009Z" fill="#882C9F"/>
<path d="M183.197 59.1029L109.021 53.3598C108.158 53.2931 107.29 53.3939 106.467 53.6563C105.644 53.9188 104.882 54.3377 104.224 54.8893C103.565 55.4409 103.025 56.1143 102.632 56.8711C102.239 57.6279 102.002 58.4532 101.934 59.2999L99.0809 94.766C98.9438 96.4765 99.5044 98.1704 100.64 99.4753C101.775 100.78 103.392 101.589 105.134 101.725L179.311 107.468C180.174 107.534 181.041 107.434 181.865 107.171C182.688 106.909 183.45 106.49 184.108 105.938C184.766 105.387 185.307 104.713 185.7 103.956C186.093 103.2 186.33 102.374 186.398 101.528L189.109 67.8185L189.164 67.1298L189.25 66.0582C189.318 65.2114 189.215 64.3599 188.948 63.5521C188.68 62.7443 188.253 61.9961 187.691 61.3503C187.129 60.7044 186.443 60.1735 185.672 59.7879C184.901 59.4023 184.06 59.1695 183.197 59.1029ZM181.007 89.9603L180.537 95.8033C180.451 96.8353 179.952 97.7919 179.15 98.464C178.347 99.1361 177.306 99.469 176.254 99.39L166.331 98.6226C165.279 98.5383 164.304 98.0488 163.619 97.2612C162.935 96.4735 162.595 95.4519 162.676 94.4195L163.146 88.5765C163.232 87.5446 163.731 86.5882 164.534 85.9162C165.336 85.2442 166.377 84.9111 167.429 84.9898L177.349 85.7581C178.4 85.8427 179.375 86.3321 180.06 87.1193C180.746 87.9066 181.086 88.9278 181.007 89.9603ZM103.711 86.9136C103.788 85.9681 104.244 85.0912 104.979 84.4752C105.714 83.8593 106.668 83.5546 107.631 83.628L120.861 84.6529C121.339 84.6891 121.805 84.8174 122.232 85.0305C122.659 85.2435 123.04 85.5371 123.351 85.8944C123.663 86.2518 123.9 86.666 124.049 87.1132C124.197 87.5605 124.254 88.0321 124.217 88.5011C124.18 88.9701 124.049 89.4272 123.831 89.8465C123.614 90.2657 123.314 90.6388 122.95 90.9444C122.586 91.25 122.163 91.4822 121.708 91.6276C121.252 91.773 120.771 91.8288 120.293 91.7918L120.286 91.7935L107.057 90.7686C106.579 90.7316 106.113 90.6024 105.687 90.3885C105.26 90.1746 104.88 89.8802 104.569 89.5222C104.258 89.1641 104.023 88.7494 103.875 88.3018C103.728 87.8542 103.672 87.3824 103.711 86.9136ZM106.543 58.0142L106.453 57.6509L106.833 57.6167C106.982 57.601 110.501 57.291 113.241 59.2114C115.98 61.1318 116.82 64.5013 116.857 64.6422L116.944 65.0062L116.564 65.0438C116.025 65.0832 115.484 65.0796 114.945 65.0333C113.233 64.9349 111.578 64.3866 110.156 63.4458C107.416 61.5254 106.576 58.1559 106.543 58.0142Z" fill="#882C9F"/>
<path d="M169.878 93.8353L165.579 93.5024C165.272 93.4792 164.968 93.5764 164.735 93.7726C164.501 93.9688 164.356 94.2481 164.332 94.549C164.308 94.85 164.406 95.1481 164.606 95.3779C164.805 95.6076 165.089 95.7503 165.396 95.7746L169.696 96.1075C170.002 96.1307 170.306 96.0335 170.54 95.8373C170.774 95.6411 170.918 95.3618 170.943 95.0608C170.967 94.7599 170.868 94.4618 170.669 94.232C170.469 94.0022 170.185 93.8595 169.878 93.8353Z" fill="#882C9F"/>
<path d="M177.816 94.4495L173.516 94.1166C173.21 94.0936 172.906 94.1909 172.673 94.3871C172.439 94.5833 172.294 94.8625 172.27 95.1633C172.246 95.4641 172.344 95.7621 172.544 95.9918C172.743 96.2216 173.027 96.3643 173.334 96.3888L177.633 96.7217C177.94 96.7447 178.243 96.6474 178.477 96.4511C178.711 96.2549 178.855 95.9758 178.879 95.675C178.904 95.3742 178.805 95.0762 178.606 94.8465C178.407 94.6167 178.123 94.474 177.816 94.4495Z" fill="#882C9F"/>
<path d="M170.113 90.9133L165.813 90.5805C165.507 90.5575 165.203 90.6548 164.97 90.851C164.736 91.0472 164.591 91.3263 164.567 91.6272C164.543 91.928 164.641 92.226 164.841 92.4557C165.04 92.6854 165.324 92.8282 165.631 92.8527L169.93 93.1855C170.237 93.2088 170.541 93.1116 170.774 92.9154C171.008 92.7191 171.153 92.4399 171.177 92.1389C171.201 91.8379 171.103 91.5398 170.903 91.3101C170.704 91.0803 170.42 90.9376 170.113 90.9133Z" fill="#882C9F"/>
<path d="M178.051 91.5286L173.751 91.1958C173.445 91.1726 173.141 91.2697 172.907 91.466C172.674 91.6622 172.529 91.9414 172.505 92.2424C172.48 92.5434 172.579 92.8414 172.778 93.0712C172.978 93.301 173.262 93.4437 173.569 93.468L177.869 93.8008C178.175 93.8241 178.479 93.7269 178.713 93.5307C178.946 93.3344 179.091 93.0552 179.116 92.7542C179.14 92.4532 179.041 92.1551 178.842 91.9253C178.642 91.6956 178.358 91.5529 178.051 91.5286Z" fill="#882C9F"/>
<path d="M170.348 87.9925L166.048 87.6596C165.742 87.6364 165.438 87.7336 165.204 87.9298C164.971 88.126 164.826 88.4053 164.801 88.7063C164.777 89.0072 164.876 89.3053 165.075 89.5351C165.275 89.7649 165.559 89.9076 165.866 89.9318L170.166 90.2647C170.472 90.2877 170.775 90.1904 171.009 89.9942C171.243 89.798 171.387 89.5188 171.412 89.218C171.436 88.9172 171.337 88.6192 171.138 88.3895C170.939 88.1597 170.655 88.017 170.348 87.9925Z" fill="#882C9F"/>
<path d="M178.286 88.6067L173.986 88.2738C173.679 88.2508 173.376 88.3481 173.142 88.5443C172.909 88.7406 172.764 89.0197 172.74 89.3205C172.716 89.6214 172.814 89.9193 173.013 90.1491C173.213 90.3788 173.497 90.5216 173.803 90.546L178.103 90.8789C178.41 90.9019 178.713 90.8046 178.947 90.6084C179.18 90.4122 179.325 90.133 179.349 89.8322C179.373 89.5314 179.275 89.2334 179.076 89.0037C178.876 88.7739 178.592 88.6312 178.286 88.6067Z" fill="#882C9F"/>
<path d="M100.832 70.4902L100.776 71.1807L187.85 77.8935L187.905 77.2031L100.832 70.4902Z" fill="white"/>
<path d="M189.164 67.1293L189.109 67.8182L186.079 67.5848L153.792 65.0958L153.85 64.4062L186.134 66.896L189.164 67.1293Z" fill="#3F3D56"/>
<path d="M82.7183 59.8098C82.7183 59.8098 78.0047 79.3415 83.7657 79.3415C89.5268 79.3415 103.144 57.2398 103.144 57.2398L98.4301 51.5859L89.9698 63.1136L89.5267 57.2399L82.7183 59.8098Z" fill="#A0616A"/>
<path d="M101.887 58.0885C104.42 58.0885 106.473 56.0736 106.473 53.5882C106.473 51.1027 104.42 49.0879 101.887 49.0879C99.3548 49.0879 97.3018 51.1027 97.3018 53.5882C97.3018 56.0736 99.3548 58.0885 101.887 58.0885Z" fill="#A0616A"/>
<path d="M94.3892 43.3613L91.2468 40.2773C91.2468 40.2773 84.962 43.8753 84.4383 47.4732C83.9145 51.0712 81.2959 62.379 81.2959 62.379L90.9849 63.15L94.1273 58.5241L94.3892 43.3613Z" fill="#E6E6E6"/>
</g>
<defs>
<clipPath id="clip0_130_175">
<rect width="319" height="203" fill="white"/>
</clipPath>
</defs>
</svg>
