<svg width="206" height="171" viewBox="0 0 206 171" fill="none" xmlns="http://www.w3.org/2000/svg">
<path d="M136.402 6.57043C138.611 6.57043 140.409 8.33668 140.409 10.5084V160.298C140.409 162.47 138.611 164.236 136.402 164.236H67.4038C65.194 164.236 63.3968 162.47 63.3968 160.298V10.5084C63.3968 8.33668 65.194 6.57043 67.4038 6.57043H136.402ZM136.402 0.939453H67.4038C62.0254 0.939453 57.667 5.22463 57.667 10.5084V160.298C57.667 165.584 62.0273 169.867 67.4038 169.867H136.402C141.78 169.867 146.138 165.582 146.138 160.298V10.5084C146.138 5.22463 141.78 0.939453 136.402 0.939453Z" fill="#882C9F"/>
<path d="M77.4097 4.67871C77.4097 9.97934 80.9564 14.3152 85.29 14.3152H118.515C122.849 14.3152 126.395 9.97934 126.395 4.67871H77.4097ZM107.369 9.38621H89.2894C88.7622 9.38621 88.3344 8.96576 88.3344 8.44771C88.3344 7.92966 88.7622 7.50922 89.2894 7.50922H107.369C107.896 7.50922 108.324 7.92966 108.324 8.44771C108.324 8.96576 107.898 9.38621 107.369 9.38621ZM113.186 9.7541C112.453 9.7541 111.857 9.16848 111.857 8.44771C111.857 7.72695 112.453 7.14132 113.186 7.14132C113.92 7.14132 114.516 7.72695 114.516 8.44771C114.516 9.16848 113.92 9.7541 113.186 9.7541Z" fill="#882C9F"/>
<path d="M0.443971 86.6995C0.45936 86.7123 0.480622 87.0998 0.495767 87.5654C0.510913 88.0309 0.531386 88.4843 0.540658 88.5751C0.549932 88.6659 0.567345 88.9422 0.585053 89.1938C0.597632 89.4411 0.620422 89.7011 0.62994 89.7713C0.63951 89.8375 0.663036 90.0357 0.676552 90.2049C0.731551 90.8033 0.905962 92.2449 0.959676 92.5182C0.969342 92.5761 1.02232 92.911 1.08027 93.2626C2.29955 100.893 5.76439 108.754 10.9303 115.596C12.7509 118.004 15.5161 121.128 16.8698 122.292C18.7311 123.899 21.6683 124.344 24.1145 123.396C26.7688 122.372 28.0468 119.904 27.1106 117.62C26.9395 117.2 26.6552 116.718 26.4048 116.426C26.3078 116.308 25.8781 115.851 25.4483 115.41C19.7735 109.529 16.0021 103.045 14.0323 95.788C13.6752 94.4645 13.2357 92.233 13.0752 90.9235C13.0469 90.6963 13.0136 90.4442 13.0042 90.3657C12.947 89.9524 12.8563 88.8755 12.8227 88.2201C12.8103 87.9604 12.7883 87.6346 12.7795 87.4985C12.7521 87.1932 12.7941 83.6877 12.8276 83.487C12.8389 83.4092 12.8633 83.1012 12.8875 82.8097C13.162 78.9202 14.2823 74.4878 15.9546 70.6769C18.2929 65.3301 21.7069 60.5626 26.3496 56.1609C26.7688 55.7618 27.2146 55.3058 27.3409 55.1408C29.1408 52.7866 28.0644 49.6636 24.9832 48.2714C23.4013 47.5576 21.5016 47.4311 19.7861 47.9234C19.0064 48.1471 18.188 48.5714 17.6333 49.0324C17.2775 49.3264 15.8993 50.6395 15.2018 51.3514C13.2404 53.3427 11.3593 55.5587 9.72111 57.8148C8.94684 58.8784 7.5324 61.0547 6.87107 62.204C3.95609 67.2579 2.01188 72.5754 1.11366 77.9322C0.868302 79.386 0.696483 80.7556 0.622216 81.7658C0.60328 82.0493 0.573839 82.3447 0.557367 82.4224C0.523781 82.6314 0.418375 86.6741 0.443971 86.6995Z" fill="url(#paint0_linear_133_869)"/>
<path d="M26.5041 86.899C26.5143 86.9116 26.5361 87.2539 26.5519 87.6618C26.7271 92.927 28.6937 98.7189 31.9613 103.582C33.305 105.581 35.0307 107.699 35.8007 108.29C36.9506 109.168 38.3644 109.642 39.9698 109.689C42.6316 109.769 44.999 108.477 45.8361 106.497C46.0972 105.888 46.1749 105.454 46.1518 104.79C46.1286 104.127 45.9998 103.637 45.696 103.052C45.5035 102.684 45.4015 102.55 44.3853 101.322C41.4185 97.7267 39.506 93.4799 39.0012 89.3491C38.9491 88.9401 38.8972 88.5105 38.883 88.399C38.8637 88.2831 38.8462 87.5788 38.8396 86.8336C38.8229 85.6313 38.884 84.4272 38.9853 83.7511C39.4343 80.8669 40.0801 78.8529 41.2733 76.5506C41.761 75.6185 42.6064 74.2401 43.1119 73.5637C43.7964 72.6415 44.4219 71.8864 45.2827 70.953C45.8075 70.3841 46.1611 69.8431 46.3537 69.3344C47.3758 66.6113 45.255 63.7495 41.6941 63.0427C41.0997 62.9262 39.9139 62.8868 39.3223 62.968C38.0302 63.1477 36.9943 63.5655 36.1052 64.2676C35.2579 64.9421 33.5453 66.9244 32.2808 68.6936C29.5147 72.5625 27.6003 77.1194 26.8949 81.5189C26.7718 82.2766 26.7376 82.5349 26.6564 83.261C26.5746 84.0406 26.4528 86.8522 26.5041 86.899Z" fill="url(#paint1_linear_133_869)"/>
<path d="M204.283 83.5348C204.267 83.5228 204.227 83.1367 204.189 82.6725C204.151 82.2082 204.109 81.7564 204.095 81.6662C204.082 81.5759 204.051 81.3008 204.021 81.0504C203.996 80.804 203.961 80.5454 203.948 80.4757C203.935 80.4101 203.902 80.2132 203.88 80.0449C203.796 79.4499 203.551 78.0185 203.484 77.7482C203.472 77.6908 203.403 77.3589 203.328 77.0105C201.738 69.4491 197.894 61.766 192.401 55.1841C190.465 52.8673 187.551 49.882 186.142 48.7855C184.204 47.2711 181.249 46.9694 178.852 48.0355C176.251 49.1878 175.095 51.7157 176.141 53.9506C176.332 54.3626 176.64 54.8299 176.904 55.1088C177.007 55.2221 177.458 55.6579 177.909 56.0772C183.864 61.6751 187.947 67.967 190.268 75.1195C190.689 76.4241 191.237 78.6315 191.461 79.9316C191.5 80.1572 191.546 80.4073 191.559 80.4852C191.637 80.8952 191.78 81.9665 191.845 82.6195C191.87 82.8782 191.908 83.2026 191.923 83.3381C191.966 83.6418 192.095 87.1451 192.071 87.3471C192.063 87.4255 192.054 87.7342 192.044 88.0266C191.96 91.9249 191.057 96.4065 189.572 100.294C187.497 105.749 184.32 110.677 179.897 115.3C179.498 115.719 179.075 116.196 178.957 116.367C177.274 118.806 178.501 121.873 181.646 123.113C183.261 123.749 185.165 123.783 186.854 123.208C187.622 122.946 188.419 122.483 188.951 121.995C189.292 121.684 190.604 120.305 191.266 119.56C193.128 117.476 194.899 115.171 196.425 112.837C197.147 111.737 198.453 109.495 199.058 108.315C201.723 103.124 203.406 97.7186 204.042 92.3244C204.216 90.8603 204.321 89.484 204.346 88.4713C204.351 88.1873 204.366 87.8907 204.378 87.8123C204.402 87.602 204.31 83.559 204.283 83.5348Z" fill="url(#paint2_linear_133_869)"/>
<path d="M178.244 84.6063C178.234 84.5942 178.195 84.2534 178.159 83.8467C177.728 78.5963 175.481 72.9072 171.98 68.209C170.541 66.2778 168.714 64.2469 167.916 63.6943C166.725 62.8735 165.289 62.4687 163.684 62.4993C161.021 62.55 158.72 63.9558 157.98 65.9738C157.749 66.5954 157.692 67.0326 157.748 67.694C157.803 68.3554 157.956 68.8381 158.288 69.4078C158.498 69.7659 158.606 69.8955 159.681 71.0725C162.82 74.5185 164.937 78.667 165.643 82.7683C165.715 83.1743 165.787 83.6008 165.807 83.7116C165.832 83.8263 165.884 84.5289 165.927 85.2729C166.002 86.473 166 87.6786 165.931 88.3589C165.624 91.2615 165.077 93.3046 163.997 95.6623C163.555 96.6171 162.778 98.0351 162.306 98.7353C161.668 99.6897 161.08 100.475 160.265 101.449C159.769 102.043 159.442 102.6 159.275 103.118C158.386 105.887 160.644 108.642 164.235 109.175C164.835 109.262 166.021 109.244 166.608 109.134C167.89 108.891 168.904 108.423 169.758 107.679C170.571 106.964 172.185 104.9 173.362 103.072C175.936 99.0725 177.626 94.4277 178.116 89.9991C178.202 89.2362 178.224 88.9766 178.27 88.2474C178.313 87.4648 178.298 84.6506 178.244 84.6063Z" fill="url(#paint3_linear_133_869)"/>
<defs>
<linearGradient id="paint0_linear_133_869" x1="0.45623" y1="85.1277" x2="27.8219" y2="85.4554" gradientUnits="userSpaceOnUse">
<stop stop-color="#882C9F"/>
<stop offset="1" stop-color="#4804B6"/>
</linearGradient>
<linearGradient id="paint1_linear_133_869" x1="26.5004" y1="85.9018" x2="46.3931" y2="86.14" gradientUnits="userSpaceOnUse">
<stop stop-color="#882C9F"/>
<stop offset="1" stop-color="#4804B6"/>
</linearGradient>
<linearGradient id="paint2_linear_133_869" x1="204.348" y1="85.1054" x2="176.999" y2="86.112" gradientUnits="userSpaceOnUse">
<stop stop-color="#882C9F"/>
<stop offset="1" stop-color="#4804B6"/>
</linearGradient>
<linearGradient id="paint3_linear_133_869" x1="178.297" y1="85.6021" x2="158.416" y2="86.3339" gradientUnits="userSpaceOnUse">
<stop stop-color="#882C9F"/>
<stop offset="1" stop-color="#4804B6"/>
</linearGradient>
</defs>
</svg>
